<svg xmlns="http://www.w3.org/2000/svg" xmlns:svg="http://www.w3.org/2000/svg" xmlns:xlink="http://www.w3.org/1999/xlink" version="1.0" height="2059.9994078319346pt" width="3149.9661780583147pt" viewBox="205.0000000000009 267.0002960840326 3157.9661780583147 2065.9994078319346"><defs><style type="text/css">
            @font-face {
                font-family: 'noto_regular';
                src: url('https://app.creately.com/d/assets/fonts/noto/noto-regular.woff') format('woff'),
                     url('https://app.creately.com/d/assets/fonts/noto/noto-regular.woff2') format('woff2');
                font-weight: normal;
                font-style: normal;
            }
        p {
            margin: 0;
        }
        </style></defs><defs>
        <style>
            span{ display: inline-block; }
            
        </style>
        
        </defs><g id="7emfV74hfJ9"><g transform="translate(210.0000000000009 270.0002960840326)"><rect x="0" y="0" width="3149.9661780583147" height="2059.9994078319346" fill="rgb(242,245,249)" stroke="#677489" stroke-width="0.5" stroke-linecap="round" stroke-linejoin="round"/></g><g transform="translate(220.00176578697074, 1290.8000001907349) rotate(0, 1564.9813232421875, 9.199999809265137)" width="3129.962646484375" height="18.399999618530273"><text text-decoration="none" x="1565.0313232421875" fill="#20293A" font-size="10pt" font-family="noto_regular" y="14"/><text text-decoration="none" x="1565.0313232421875" fill="#4b4b4b" font-size="10pt" font-family="noto_regular" y="32"/></g></g><g id="s55KeeK03MR"><g transform="translate(1460.0000000000002 420)"><path d="M 10,0 L 639.9919122492206,0 L 639.9919122492206,0 L 639.9919122492206,0 A 10 10 0 0 1 649.9919122492206 10 L 649.9919122492206,94.68845846293044 L 649.9919122492206,94.68845846293044 L 649.9919122492206,94.68845846293044 A 10 10 0 0 1 639.9919122492206 104.68845846293044 L 10,104.68845846293044 L 10,104.68845846293044 L 10,104.68845846293044 A 10 10 0 0 1 0 94.68845846293044 L 0,10 L 0,10 L 0,10.000000000000002 A 10 10 0 0 1 10 0 Z" fill="rgb(255,255,255)" stroke="#d4cece" stroke-width="2" stroke-linecap="round" stroke-linejoin="round"/></g><g transform="translate(1470.0022122281262, 445.14422846852574) rotate(0, 314.9937438964844, 27.200000762939453)" width="629.9874877929688" height="54.400001525878906"><text text-decoration="none" x="16.449993896484386" fill="rgb(75, 75, 75)" font-weight="bold" font-size="30pt" font-family="noto_regular" y="43">E-Commerce </text><text text-decoration="none" x="267.8093688964844" fill="rgb(75, 75, 75)" font-weight="bold" font-size="30pt" font-family="noto_regular" y="43">Website </text><text text-decoration="none" x="429.0437438964844" fill="rgb(75, 75, 75)" font-weight="bold" font-size="30pt" font-family="noto_regular" y="43">User </text><text text-decoration="none" x="526.9187438964843" fill="rgb(75, 75, 75)" font-weight="bold" font-size="30pt" font-family="noto_regular" y="43">Flow</text><text text-decoration="none" x="613.6374938964843" fill="#4b4b4b" font-size="10pt" font-family="noto_regular" y="43"/></g></g><g id="ODKVadz7HyM"><g transform="translate(280.0000000000002 1010.0000000000002)"><path d="M 50,100 L 50,100 L 50,100 A 50 50 0 0 1 0 50.00000000000001 L 0,50 L 0,50.00000000000001 A 50 50 0 0 1 50 0 L 110,0 L 110,0 L 110,0 A 50 50 0 0 1 160 50 L 160,50 L 160,50 A 50 50 0 0 1 110 100 L 50,100 Z" fill="rgb(174,244,228)" stroke="#429288" stroke-width="2" stroke-linecap="round" stroke-linejoin="round"/></g><g transform="translate(290.0000000000002, 1050.800000190735) rotate(0, 70, 9.199999809265137)" width="140" height="18.399999618530273"><text text-decoration="none" x="55.0890625" fill="#2B5D59" font-size="10pt" font-family="noto_regular" y="14">Start</text><text text-decoration="none" x="85.0109375" fill="#4b4b4b" font-size="10pt" font-family="noto_regular" y="14"/></g></g><g id="zH0cmPwICUU"><g transform="translate(540 1010.0000000000002)"><rect x="0" y="0" width="160" height="100" fill="rgb(255,255,255)" stroke="#000000" stroke-width="1" stroke-linecap="round" stroke-linejoin="round"/></g><g transform="translate(596, 1051.0000000000002) rotate(0, 24, 9)" width="48" height="18"><text text-decoration="none" x="0" fill="rgb(26, 26, 26)" font-size="10pt" font-family="noto_regular" y="14">Process</text><text text-decoration="none" x="48.328125" fill="#4b4b4b" font-size="10pt" font-family="noto_regular" y="14"/></g></g><g id="7aVmWrQKaNL"><g><path d="M 440,1060 L 540,1060" fill="none" stroke="#1a1a1a" stroke-width="2" stroke-linecap="round" stroke-linejoin="round"/><path d="M 540,1060 L 531.304347826087,1054.25 L 531.304347826087,1065.75 Z" fill="rgb(26,26,26)" stroke="#1a1a1a" stroke-width="2" stroke-linecap="round" stroke-linejoin="round"/></g></g><g id="9yVxP7JWDlp"><g transform="translate(540 1010.0000000000002)"><rect x="0" y="0" width="160" height="100" fill="rgb(201,210,250)" stroke="#4E46DC" stroke-width="2" stroke-linecap="round" stroke-linejoin="round"/></g><g transform="translate(550, 1050.800000190735) rotate(0, 70, 9.199999809265137)" width="140" height="18.399999618530273"><text text-decoration="none" x="26.534374999999997" fill="#36309D" font-size="10pt" font-family="noto_regular" y="14">Splash </text><text text-decoration="none" x="71.065625" fill="#36309D" font-size="10pt" font-family="noto_regular" y="14">Screen</text><text text-decoration="none" x="113.565625" fill="#4b4b4b" font-size="10pt" font-family="noto_regular" y="14"/></g></g><g id="Kcl0psIZKuC"><g><path d="M 440,1060 L 540,1060" fill="none" stroke="#1a1a1a" stroke-width="2" stroke-linecap="round" stroke-linejoin="round"/><path d="M 540,1060 L 531.304347826087,1054.25 L 531.304347826087,1065.75 Z" fill="rgb(26,26,26)" stroke="#1a1a1a" stroke-width="2" stroke-linecap="round" stroke-linejoin="round"/></g></g><g id="ATpnfdnqr8I"><g transform="translate(800.0000000000002 1010.0000000000002)"><path d="M 80,0 L 0,50 L 80,100 L 160,50 L 80,0 Z" fill="rgb(249,231,150)" stroke="#CC7B2E" stroke-width="2" stroke-linecap="round" stroke-linejoin="round"/></g><g transform="translate(810.0000000000002, 1050.800000190735) rotate(0, 70, 9.199999809265137)" width="140" height="18.399999618530273"><text text-decoration="none" x="38.83125" fill="#88451D" font-size="10pt" font-family="noto_regular" y="14">User </text><text text-decoration="none" x="71.45625" fill="#88451D" font-size="10pt" font-family="noto_regular" y="14">Auth</text><text text-decoration="none" x="101.26875" fill="#4b4b4b" font-size="10pt" font-family="noto_regular" y="14"/></g></g><g id="pkHatXchbyV"><g><path d="M 700,1060 L 800,1060" fill="none" stroke="#1a1a1a" stroke-width="2" stroke-linecap="round" stroke-linejoin="round" stroke-dasharray="0 0"/><path d="M 800,1060 L 791.304347826087,1054.25 L 791.304347826087,1065.75 Z" fill="rgb(26,26,26)" stroke="#1a1a1a" stroke-width="2" stroke-linecap="round" stroke-linejoin="round"/></g></g><g id="hGc9s4plMWR"><g transform="translate(800.0000000000002 1210.0000000000005)"><rect x="0" y="0" width="160" height="100" fill="rgb(201,210,250)" stroke="#4E46DC" stroke-width="2" stroke-linecap="round" stroke-linejoin="round"/></g><g transform="translate(810.0000000000002, 1250.8000001907353) rotate(0, 70, 9.199999809265137)" width="140" height="18.399999618530273"><text text-decoration="none" x="23.682812499999997" fill="#36309D" font-size="10pt" font-family="noto_regular" y="14">Sign </text><text text-decoration="none" x="54.3546875" fill="#36309D" font-size="10pt" font-family="noto_regular" y="14">Up/ </text><text text-decoration="none" x="81.4953125" fill="#36309D" font-size="10pt" font-family="noto_regular" y="14">Login</text><text text-decoration="none" x="116.4171875" fill="#4b4b4b" font-size="10pt" font-family="noto_regular" y="14"/></g></g><g id="yn1PeqHH8Wm"><mask id="5d0f4" x="866" y="1096" width="28" height="128" maskUnits="userSpaceOnUse"><rect x="866" y="1096" width="28" height="128" fill="white"/><rect x="868" y="1148" width="24" height="24" fill="black"/></mask><g mask="url(#5d0f4)"><path d="M 880,1110 L 880,1210" fill="none" stroke="#1a1a1a" stroke-width="2" stroke-linecap="round" stroke-linejoin="round"/><path d="M 880,1210 L 885.75,1201.304347826087 L 874.25,1201.304347826087 Z" fill="rgb(26,26,26)" stroke="#1a1a1a" stroke-width="2" stroke-linecap="round" stroke-linejoin="round"/></g><g transform="translate(871, 1151)" width="18" height="18"><text text-decoration="none" x="0" fill="#4b4b4b" font-size="10pt" font-family="noto_regular" y="14">No</text><text text-decoration="none" x="18.203125" fill="#4b4b4b" font-size="10pt" font-family="noto_regular" y="14"/></g></g><g id="lcPUn7CnfUE"><g transform="translate(1060.0000000000005 1010.0000000000005)"><rect x="0" y="0" width="160" height="100" fill="rgb(201,210,250)" stroke="#4E46DC" stroke-width="2" stroke-linecap="round" stroke-linejoin="round"/></g><g transform="translate(1070.0000000000005, 1050.8000001907353) rotate(0, 70, 9.199999809265137)" width="140" height="18.399999618530273"><text text-decoration="none" x="28.573437499999997" fill="#36309D" font-size="10pt" font-family="noto_regular" y="14">Home </text><text text-decoration="none" x="69.9640625" fill="#36309D" font-size="10pt" font-family="noto_regular" y="14">screen</text><text text-decoration="none" x="111.5265625" fill="#4b4b4b" font-size="10pt" font-family="noto_regular" y="14"/></g></g><g id="MXvjacvDLm0"><mask id="c9e45" x="946" y="1046" width="128" height="28" maskUnits="userSpaceOnUse"><rect x="946" y="1046" width="128" height="28" fill="white"/><rect x="996.5" y="1048" width="27" height="24" fill="black"/></mask><g mask="url(#c9e45)"><path d="M 960,1060 L 1060,1060" fill="none" stroke="#1a1a1a" stroke-width="2" stroke-linecap="round" stroke-linejoin="round"/><path d="M 1060,1060 L 1051.304347826087,1054.25 L 1051.304347826087,1065.75 Z" fill="rgb(26,26,26)" stroke="#1a1a1a" stroke-width="2" stroke-linecap="round" stroke-linejoin="round"/></g><g transform="translate(999.5, 1051)" width="21" height="18"><text text-decoration="none" x="0" fill="#4b4b4b" font-size="10pt" font-family="noto_regular" y="14">Yes</text><text text-decoration="none" x="21.453125" fill="#4b4b4b" font-size="10pt" font-family="noto_regular" y="14"/></g></g><g id="lvaLlWBUGM6"><g transform="translate(1330 770)"><rect x="0" y="0" width="160" height="100" fill="rgb(182,241,250)" stroke="#418FAE" stroke-width="2" stroke-linecap="round" stroke-linejoin="round" stroke-dasharray="0 0"/></g><g transform="translate(1340, 810.8000001907349) rotate(0, 70, 9.199999809265137)" width="140" height="18.399999618530273"><text text-decoration="none" x="52.7765625" fill="#2D5D73" font-size="10pt" font-family="noto_regular" y="14">Deals</text><text text-decoration="none" x="87.3234375" fill="#4b4b4b" font-size="10pt" font-family="noto_regular" y="14"/></g></g><g id="oAfpxeT7d8o"><g><path d="M 1220,1060 L 1265.0000000000002,1060.0000000000005 Q 1275.0000000000002,1060.0000000000005 1275.0000000000002,1050.0000000000005 L 1275,940 L 1275.0000000000002,830 Q 1275.0000000000002,820 1285.0000000000002,820 L 1330,820" fill="none" stroke="#418FAE" stroke-width="2" stroke-linecap="round" stroke-linejoin="round"/><path d="M 1330,820 L 1321.304347826087,814.25 L 1321.304347826087,825.75 Z" fill="rgb(65,143,174)" stroke="#418FAE" stroke-width="2" stroke-linecap="round" stroke-linejoin="round"/></g></g><g id="0tqlsv7Ibbz"><g transform="translate(1330 890)"><rect x="0" y="0" width="160" height="100" fill="rgb(182,241,250)" stroke="#418FAE" stroke-width="2" stroke-linecap="round" stroke-linejoin="round" stroke-dasharray="0 0"/></g><g transform="translate(1340, 930.8000001907349) rotate(0, 70, 9.199999809265137)" width="140" height="18.399999618530273"><text text-decoration="none" x="33.4328125" fill="#2D5D73" font-size="10pt" font-family="noto_regular" y="14">User </text><text text-decoration="none" x="66.0578125" fill="#2D5D73" font-size="10pt" font-family="noto_regular" y="14">Profile</text><text text-decoration="none" x="106.6671875" fill="#4b4b4b" font-size="10pt" font-family="noto_regular" y="14"/></g></g><g id="6RtpYeVERdj"><g><path d="M 1220,1060 L 1265.0000000000002,1060.0000000000005 Q 1275.0000000000002,1060.0000000000005 1275.0000000000002,1050.0000000000005 L 1275,1000 L 1275.0000000000002,950 Q 1275.0000000000002,940 1285.0000000000002,940 L 1330,940" fill="none" stroke="#418FAE" stroke-width="2" stroke-linecap="round" stroke-linejoin="round" stroke-dasharray="0 0"/><path d="M 1330,940 L 1321.304347826087,934.25 L 1321.304347826087,945.75 Z" fill="rgb(65,143,174)" stroke="#418FAE" stroke-width="2" stroke-linecap="round" stroke-linejoin="round"/></g></g><g id="fLQlgAUxjuB"><g transform="translate(1330 1010.0000000000001)"><rect x="0" y="0" width="160" height="100" fill="rgb(182,241,250)" stroke="#418FAE" stroke-width="2" stroke-linecap="round" stroke-linejoin="round" stroke-dasharray="0 0"/></g><g transform="translate(1340, 1050.8000001907349) rotate(0, 70, 9.199999809265137)" width="140" height="18.399999618530273"><text text-decoration="none" x="23.120312499999997" fill="#2D5D73" font-size="10pt" font-family="noto_regular" y="14">Catalog </text><text text-decoration="none" x="74.4796875" fill="#2D5D73" font-size="10pt" font-family="noto_regular" y="14">Screen</text><text text-decoration="none" x="116.9796875" fill="#4b4b4b" font-size="10pt" font-family="noto_regular" y="14"/></g></g><g id="GzTHLVs3jeR"><g><path d="M 1220,1060 L 1330,1060" fill="none" stroke="#418FAE" stroke-width="2" stroke-linecap="round" stroke-linejoin="round" stroke-dasharray="0 0"/><path d="M 1330,1060 L 1321.304347826087,1054.25 L 1321.304347826087,1065.75 Z" fill="rgb(65,143,174)" stroke="#418FAE" stroke-width="2" stroke-linecap="round" stroke-linejoin="round"/></g></g><g id="9LigfsOo6ff"><g transform="translate(1330 1130)"><rect x="0" y="0" width="160" height="100" fill="rgb(182,241,250)" stroke="#418FAE" stroke-width="2" stroke-linecap="round" stroke-linejoin="round" stroke-dasharray="0 0"/></g><g transform="translate(1340, 1170.8000001907349) rotate(0, 70, 9.199999809265137)" width="140" height="18.399999618530273"><text text-decoration="none" x="45.784375" fill="#2D5D73" font-size="10pt" font-family="noto_regular" y="14">Wishlist</text><text text-decoration="none" x="94.315625" fill="#4b4b4b" font-size="10pt" font-family="noto_regular" y="14"/></g></g><g id="ynfLgnevD7E"><g><path d="M 1220,1060 L 1265.0000000000002,1060.0000000000005 Q 1275.0000000000002,1060.0000000000005 1275.0000000000002,1070.0000000000005 L 1275,1120 L 1275.0000000000002,1170 Q 1275.0000000000002,1180 1285.0000000000002,1180 L 1330,1180" fill="none" stroke="#418FAE" stroke-width="2" stroke-linecap="round" stroke-linejoin="round" stroke-dasharray="0 0"/><path d="M 1330,1180 L 1321.304347826087,1174.25 L 1321.304347826087,1185.75 Z" fill="rgb(65,143,174)" stroke="#418FAE" stroke-width="2" stroke-linecap="round" stroke-linejoin="round"/></g></g><g id="I4dXPox9S2S"><g transform="translate(1330 1250)"><rect x="0" y="0" width="160" height="100" fill="rgb(182,241,250)" stroke="#418FAE" stroke-width="2" stroke-linecap="round" stroke-linejoin="round" stroke-dasharray="0 0"/></g><g transform="translate(1340, 1290.8000001907349) rotate(0, 70, 9.199999809265137)" width="140" height="18.399999618530273"><text text-decoration="none" x="48.6125" fill="#2D5D73" font-size="10pt" font-family="noto_regular" y="14">Others</text><text text-decoration="none" x="91.4875" fill="#4b4b4b" font-size="10pt" font-family="noto_regular" y="14"/></g></g><g id="GAMWE2f9Hfq"><g><path d="M 1220,1060 L 1265.0000000000002,1060.0000000000005 Q 1275.0000000000002,1060.0000000000005 1275.0000000000002,1070.0000000000005 L 1275,1180 L 1275.0000000000002,1290 Q 1275.0000000000002,1300 1285.0000000000002,1300 L 1330,1300" fill="none" stroke="#418FAE" stroke-width="2" stroke-linecap="round" stroke-linejoin="round" stroke-dasharray="0 0"/><path d="M 1330,1300 L 1321.304347826087,1294.25 L 1321.304347826087,1305.75 Z" fill="rgb(65,143,174)" stroke="#418FAE" stroke-width="2" stroke-linecap="round" stroke-linejoin="round"/></g></g><g id="LFNUCUBBcdH"><g transform="translate(1610 1390)"><rect x="0" y="0" width="160" height="100" fill="rgb(201,210,250)" stroke="#4E46DC" stroke-width="2" stroke-linecap="round" stroke-linejoin="round" stroke-dasharray="0 0"/></g><g transform="translate(1620, 1430.8000001907349) rotate(0, 70, 9.199999809265137)" width="140" height="18.399999618530273"><text text-decoration="none" x="22.424999999999997" fill="#36309D" font-size="10pt" font-family="noto_regular" y="14">Product </text><text text-decoration="none" x="75.175" fill="#36309D" font-size="10pt" font-family="noto_regular" y="14">Screen</text><text text-decoration="none" x="117.675" fill="#4b4b4b" font-size="10pt" font-family="noto_regular" y="14"/></g></g><g id="tw5dfJ2voq7"><g><path d="M 1140,1110 L 1140.0000000000005,1430 Q 1140.0000000000005,1440 1150.0000000000005,1440 L 1610,1440" fill="none" stroke="#1a1a1a" stroke-width="2" stroke-linecap="round" stroke-linejoin="round"/><path d="M 1610,1440 L 1601.304347826087,1434.25 L 1601.304347826087,1445.75 Z" fill="rgb(26,26,26)" stroke="#1a1a1a" stroke-width="2" stroke-linecap="round" stroke-linejoin="round"/></g></g><g id="dJL2wmGYTyk"><g><path d="M 1490,1180 L 1540,1180 Q 1550,1180 1550,1190 L 1550,1310 L 1550,1430 Q 1550,1440 1560,1440 L 1610,1440" fill="none" stroke="#1a1a1a" stroke-width="2" stroke-linecap="round" stroke-linejoin="round"/><path d="M 1610,1440 L 1601.304347826087,1434.25 L 1601.304347826087,1445.75 Z" fill="rgb(26,26,26)" stroke="#1a1a1a" stroke-width="2" stroke-linecap="round" stroke-linejoin="round"/></g></g><g id="nG66OXS2UsU"><g><path d="M 1490,1060 L 1680,1060 Q 1690,1060 1690,1070 L 1690,1390" fill="none" stroke="#1a1a1a" stroke-width="2" stroke-linecap="round" stroke-linejoin="round"/><path d="M 1690,1390 L 1695.75,1381.304347826087 L 1684.25,1381.304347826087 Z" fill="rgb(26,26,26)" stroke="#1a1a1a" stroke-width="2" stroke-linecap="round" stroke-linejoin="round"/></g></g><g id="Df8uEkPxtHy"><g transform="translate(1790.0000000000002 1550.0000000000002)"><rect x="0" y="0" width="160" height="100" fill="rgb(201,210,250)" stroke="#4E46DC" stroke-width="2" stroke-linecap="round" stroke-linejoin="round" stroke-dasharray="0 0"/></g><g transform="translate(1800.0000000000002, 1590.800000190735) rotate(0, 70, 9.199999809265137)" width="140" height="18.399999618530273"><text text-decoration="none" x="33.95625" fill="#36309D" font-size="10pt" font-family="noto_regular" y="14">Cart </text><text text-decoration="none" x="63.64375" fill="#36309D" font-size="10pt" font-family="noto_regular" y="14">Screen</text><text text-decoration="none" x="106.14375" fill="#4b4b4b" font-size="10pt" font-family="noto_regular" y="14"/></g></g><g id="bkZbpjGBFfp"><g><path d="M 1140,1110 L 1140.0000000000005,1590.0000000000002 Q 1140.0000000000005,1600.0000000000002 1150.0000000000005,1600.0000000000002 L 1790,1600" fill="none" stroke="#1a1a1a" stroke-width="2" stroke-linecap="round" stroke-linejoin="round" stroke-dasharray="0 0"/><path d="M 1790,1600 L 1781.304347826087,1594.25 L 1781.304347826087,1605.75 Z" fill="rgb(26,26,26)" stroke="#1a1a1a" stroke-width="2" stroke-linecap="round" stroke-linejoin="round"/></g></g><g id="plnRQn5p8Kr"><g><path d="M 1690,1490 L 1690,1590.0000000000002 Q 1690,1600.0000000000002 1700,1600.0000000000002 L 1790,1600" fill="none" stroke="#1a1a1a" stroke-width="2" stroke-linecap="round" stroke-linejoin="round"/><path d="M 1790,1600 L 1781.304347826087,1594.25 L 1781.304347826087,1605.75 Z" fill="rgb(26,26,26)" stroke="#1a1a1a" stroke-width="2" stroke-linecap="round" stroke-linejoin="round"/></g></g><g id="ldHg0Nbs1Ls"><g><path d="M 1490,1180 L 1860.0000000000002,1180 Q 1870.0000000000002,1180 1870.0000000000002,1190 L 1870,1550" fill="none" stroke="#1a1a1a" stroke-width="2" stroke-linecap="round" stroke-linejoin="round"/><path d="M 1870,1550 L 1875.75,1541.304347826087 L 1864.25,1541.304347826087 Z" fill="rgb(26,26,26)" stroke="#1a1a1a" stroke-width="2" stroke-linecap="round" stroke-linejoin="round"/></g></g><g id="baAkWEqYFCT"><g><path d="M 1490,1060 L 1860.0000000000002,1060 Q 1870.0000000000002,1060 1870.0000000000002,1070 L 1870,1550" fill="none" stroke="#1a1a1a" stroke-width="2" stroke-linecap="round" stroke-linejoin="round"/><path d="M 1870,1550 L 1875.75,1541.304347826087 L 1864.25,1541.304347826087 Z" fill="rgb(26,26,26)" stroke="#1a1a1a" stroke-width="2" stroke-linecap="round" stroke-linejoin="round"/></g></g><g id="4RfrcMoPfHs"><g transform="translate(2050 1550)"><path d="M 80,0 L 0,50 L 80,100 L 160,50 L 80,0 Z" fill="rgb(249,231,150)" stroke="#CC7B2E" stroke-width="2" stroke-linecap="round" stroke-linejoin="round"/></g><g transform="translate(2060, 1590.8000001907349) rotate(0, 70, 9.199999809265137)" width="140" height="18.399999618530273"><text text-decoration="none" x="21.104687499999997" fill="#88451D" font-size="10pt" font-family="noto_regular" y="14">Quick </text><text text-decoration="none" x="60.1828125" fill="#88451D" font-size="10pt" font-family="noto_regular" y="14">Checkout</text><text text-decoration="none" x="118.9953125" fill="#4b4b4b" font-size="10pt" font-family="noto_regular" y="14"/></g></g><g id="RO1mL4Y3rcN"><g><path d="M 1950,1600 L 2050,1600" fill="none" stroke="#1a1a1a" stroke-width="2" stroke-linecap="round" stroke-linejoin="round" stroke-dasharray="0 0"/><path d="M 2050,1600 L 2041.304347826087,1594.25 L 2041.304347826087,1605.75 Z" fill="rgb(26,26,26)" stroke="#1a1a1a" stroke-width="2" stroke-linecap="round" stroke-linejoin="round"/></g></g><g id="ErMigtXWNdq"><g transform="translate(2310 1550)"><rect x="0" y="0" width="160" height="100" fill="rgb(201,210,250)" stroke="#4E46DC" stroke-width="2" stroke-linecap="round" stroke-linejoin="round"/></g><g transform="translate(2320, 1590.8000001907349) rotate(0, 70, 9.199999809265137)" width="140" height="18.399999618530273"><text text-decoration="none" x="40.64375" fill="#36309D" font-size="10pt" font-family="noto_regular" y="14">Checkout</text><text text-decoration="none" x="99.45625" fill="#4b4b4b" font-size="10pt" font-family="noto_regular" y="14"/></g></g><g id="exqcqTARgJV"><mask id="af203" x="2196" y="1586" width="128" height="28" maskUnits="userSpaceOnUse"><rect x="2196" y="1586" width="128" height="28" fill="white"/><rect x="2246.5" y="1588" width="27" height="24" fill="black"/></mask><g mask="url(#af203)"><path d="M 2210,1600 L 2310,1600" fill="none" stroke="#1a1a1a" stroke-width="2" stroke-linecap="round" stroke-linejoin="round"/><path d="M 2310,1600 L 2301.304347826087,1594.25 L 2301.304347826087,1605.75 Z" fill="rgb(26,26,26)" stroke="#1a1a1a" stroke-width="2" stroke-linecap="round" stroke-linejoin="round"/></g><g transform="translate(2249.5, 1591)" width="21" height="18"><text text-decoration="none" x="0" fill="#4b4b4b" font-size="10pt" font-family="noto_regular" y="14">Yes</text><text text-decoration="none" x="21.453125" fill="#4b4b4b" font-size="10pt" font-family="noto_regular" y="14"/></g></g><g id="odFS3E9FIyZ"><g transform="translate(2310.0000000000005 1719.9999999999998)"><rect x="0" y="0" width="160" height="100" fill="rgb(201,210,250)" stroke="#4E46DC" stroke-width="2" stroke-linecap="round" stroke-linejoin="round"/></g><g transform="translate(2320.0000000000005, 1760.8000001907346) rotate(0, 70, 9.199999809265137)" width="140" height="18.399999618530273"><text text-decoration="none" x="34.45625" fill="#36309D" font-size="10pt" font-family="noto_regular" y="14">Add </text><text text-decoration="none" x="62.846875" fill="#36309D" font-size="10pt" font-family="noto_regular" y="14">Details</text><text text-decoration="none" x="105.64375" fill="#4b4b4b" font-size="10pt" font-family="noto_regular" y="14"/></g></g><g id="o6PjqO65xnu"><mask id="980ce" x="2116" y="1636" width="208" height="148" maskUnits="userSpaceOnUse"><rect x="2116" y="1636" width="208" height="148" fill="white"/><rect x="2148" y="1757.9999999999998" width="24" height="24" fill="black"/></mask><g mask="url(#980ce)"><path d="M 2130,1650 L 2130,1759.9999999999998 Q 2130,1769.9999999999998 2140,1769.9999999999998 L 2310,1770" fill="none" stroke="#1a1a1a" stroke-width="2" stroke-linecap="round" stroke-linejoin="round"/><path d="M 2310,1770 L 2301.304347826087,1764.25 L 2301.304347826087,1775.75 Z" fill="rgb(26,26,26)" stroke="#1a1a1a" stroke-width="2" stroke-linecap="round" stroke-linejoin="round"/></g><g transform="translate(2151, 1760.9999999999998)" width="18" height="18"><text text-decoration="none" x="0" fill="#4b4b4b" font-size="10pt" font-family="noto_regular" y="14">No</text><text text-decoration="none" x="18.203125" fill="#4b4b4b" font-size="10pt" font-family="noto_regular" y="14"/></g></g><g id="cb8olyefZBD"><g transform="translate(2310.0000000000005 1380.0000000000002)"><rect x="0" y="0" width="160" height="100" fill="rgb(201,210,250)" stroke="#4E46DC" stroke-width="2" stroke-linecap="round" stroke-linejoin="round" stroke-dasharray="0 0"/></g><g transform="translate(2320.0000000000005, 1420.800000190735) rotate(0, 70, 9.199999809265137)" width="140" height="18.399999618530273"><text text-decoration="none" x="8.370312499999997" fill="#36309D" font-size="10pt" font-family="noto_regular" y="14">Order </text><text text-decoration="none" x="48.9796875" fill="#36309D" font-size="10pt" font-family="noto_regular" y="14">Confirmation</text><text text-decoration="none" x="131.7296875" fill="#4b4b4b" font-size="10pt" font-family="noto_regular" y="14"/></g></g><g id="8LA3NCYPXPc"><g><path d="M 2390,1550 L 2390,1480" fill="none" stroke="#1a1a1a" stroke-width="2" stroke-linecap="round" stroke-linejoin="round"/><path d="M 2390,1480 L 2384.25,1488.695652173913 L 2395.75,1488.695652173913 Z" fill="rgb(26,26,26)" stroke="#1a1a1a" stroke-width="2" stroke-linecap="round" stroke-linejoin="round"/></g></g><g id="a36tBHWgynW"><g transform="translate(2580.0000000000005 1380.0000000000002)"><rect x="0" y="0" width="160" height="100" fill="rgb(201,210,250)" stroke="#4E46DC" stroke-width="2" stroke-linecap="round" stroke-linejoin="round" stroke-dasharray="0 0"/></g><g transform="translate(2590.0000000000005, 1420.800000190735) rotate(0, 70, 9.199999809265137)" width="140" height="18.399999618530273"><text text-decoration="none" x="47.58125" fill="#36309D" font-size="10pt" font-family="noto_regular" y="14">Invoice</text><text text-decoration="none" x="92.51875" fill="#4b4b4b" font-size="10pt" font-family="noto_regular" y="14"/></g></g><g id="gCecLiHDBH4"><g><path d="M 2470,1430 L 2580,1430" fill="none" stroke="#1a1a1a" stroke-width="2" stroke-linecap="round" stroke-linejoin="round" stroke-dasharray="0 0"/><path d="M 2580,1430 L 2571.304347826087,1424.25 L 2571.304347826087,1435.75 Z" fill="rgb(26,26,26)" stroke="#1a1a1a" stroke-width="2" stroke-linecap="round" stroke-linejoin="round"/></g></g><g id="2lGiXWKZfOu"><g transform="translate(2850.000000000002 1380.0000000000002)"><rect x="0" y="0" width="160" height="100" fill="rgb(201,210,250)" stroke="#4E46DC" stroke-width="2" stroke-linecap="round" stroke-linejoin="round" stroke-dasharray="0 0"/></g><g transform="translate(2860.000000000002, 1420.800000190735) rotate(0, 70, 9.199999809265137)" width="140" height="18.399999618530273"><text text-decoration="none" x="13.495312499999997" fill="#36309D" font-size="10pt" font-family="noto_regular" y="14">Payment </text><text text-decoration="none" x="72.3390625" fill="#36309D" font-size="10pt" font-family="noto_regular" y="14">Gateway</text><text text-decoration="none" x="126.6046875" fill="#4b4b4b" font-size="10pt" font-family="noto_regular" y="14"/></g></g><g id="vpp6cMlYvA5"><g><path d="M 2740,1430 L 2850,1430" fill="none" stroke="#1a1a1a" stroke-width="2" stroke-linecap="round" stroke-linejoin="round" stroke-dasharray="0 0"/><path d="M 2850,1430 L 2841.304347826087,1424.25 L 2841.304347826087,1435.75 Z" fill="rgb(26,26,26)" stroke="#1a1a1a" stroke-width="2" stroke-linecap="round" stroke-linejoin="round"/></g></g><g id="Nrphc3jsjtK"><g transform="translate(3110.000000000002 1380)"><path d="M 50,100 L 50,100 L 50,100 A 50 50 0 0 1 0 50.00000000000001 L 0,50 L 0,50.00000000000001 A 50 50 0 0 1 50 0 L 110,0 L 110,0 L 110,0 A 50 50 0 0 1 160 50 L 160,50 L 160,50 A 50 50 0 0 1 110 100 L 50,100 Z" fill="rgb(244,209,231)" stroke="#C93B76" stroke-width="2" stroke-linecap="round" stroke-linejoin="round"/></g><g transform="translate(3120.000000000002, 1420.8000001907349) rotate(0, 70, 9.199999809265137)" width="140" height="18.399999618530273"><text text-decoration="none" x="58.1203125" fill="#90264D" font-size="10pt" font-family="noto_regular" y="14">End</text><text text-decoration="none" x="81.9796875" fill="#4b4b4b" font-size="10pt" font-family="noto_regular" y="14"/></g></g><g id="X7jdlR02mOR"><g><path d="M 3010,1430 L 3110,1430" fill="none" stroke="#1a1a1a" stroke-width="2" stroke-linecap="round" stroke-linejoin="round" stroke-dasharray="0 0"/><path d="M 3110,1430 L 3101.304347826087,1424.25 L 3101.304347826087,1435.75 Z" fill="rgb(26,26,26)" stroke="#1a1a1a" stroke-width="2" stroke-linecap="round" stroke-linejoin="round"/></g></g></svg>